<svg width="80" height="81" viewBox="0 0 80 81" fill="none" xmlns="http://www.w3.org/2000/svg">
<path d="M72 53.8334V27.1667C71.9988 25.9977 71.6902 24.8494 71.1051 23.8373C70.5201 22.8251 69.6791 21.9846 68.6667 21.4001L45.3333 8.06675C44.3199 7.48163 43.1702 7.17358 42 7.17358C40.8298 7.17358 39.6801 7.48163 38.6667 8.06675L15.3333 21.4001C14.3209 21.9846 13.4799 22.8251 12.8949 23.8373C12.3098 24.8494 12.0012 25.9977 12 27.1667V53.8334C12.0012 55.0025 12.3098 56.1507 12.8949 57.1629C13.4799 58.175 14.3209 59.0155 15.3333 59.6001L38.6667 72.9334C39.6801 73.5185 40.8298 73.8266 42 73.8266C43.1702 73.8266 44.3199 73.5185 45.3333 72.9334L68.6667 59.6001C69.6791 59.0155 70.5201 58.175 71.1051 57.1629C71.6902 56.1507 71.9988 55.0025 72 53.8334Z" stroke="#007AFF" stroke-width="4" stroke-linecap="square" stroke-linejoin="round"/>
<path d="M12.9004 23.7L42.0004 40.5333L71.1004 23.7" stroke="#007AFF" stroke-width="4" stroke-linecap="square" stroke-linejoin="round"/>
<path d="M42 74.1V40.5" stroke="#007AFF" stroke-width="4" stroke-linecap="square" stroke-linejoin="round"/>
<circle cx="63.3333" cy="57.1666" r="13.3333" fill="white"/>
<path d="M64.6798 71.3546C60.3563 71.3546 56.2729 69.1128 53.9777 65.4298C52.75 63.5349 52.0562 61.2663 52.0028 58.9444C51.9227 55.0478 53.5774 51.4182 56.5399 48.9629C58.755 47.1214 61.5306 46.0806 64.3863 46.0005C67.8558 45.9738 70.9783 47.1748 73.4337 49.5234C75.889 51.872 77.2768 55.0213 77.3302 58.4107C77.3835 60.7326 76.7964 63.0011 75.6221 65.0027C74.9816 66.1236 74.1542 67.1645 73.1668 68.0452C70.9783 70.1003 68.0426 71.3012 64.92 71.3546C64.8666 71.3546 64.7866 71.3546 64.6798 71.3546ZM64.6798 50.0038C64.6264 50.0038 64.5464 50.0038 64.493 50.0038C62.518 50.0572 60.6499 50.7511 59.1019 52.0321C57.0736 53.7135 55.9527 56.1955 56.0061 58.8644C56.0327 60.439 56.5131 61.9869 57.3405 63.2946C58.9685 65.9101 61.7975 67.5114 64.8399 67.3513C66.9483 67.2979 68.95 66.4973 70.4713 65.0829C71.1652 64.469 71.7256 63.7751 72.1526 63.0278C72.9532 61.64 73.3536 60.092 73.3269 58.5174C73.2735 56.1955 72.3394 54.0337 70.658 52.4324C69.0567 50.8577 66.9217 50.0038 64.6798 50.0038Z" fill="#007AFF"/>
<path d="M63.2117 63.3481C62.7046 63.3481 62.2241 63.1612 61.8238 62.7876L59.1283 60.2256C58.3277 59.4516 58.3009 58.1973 59.0749 57.3966C59.8489 56.5959 61.1032 56.5692 61.9039 57.3432L63.2117 58.5975L67.4017 54.5409C68.2024 53.7669 69.4567 53.7935 70.2307 54.5942C71.0046 55.3948 70.978 56.6494 70.1773 57.4233L64.5994 62.8143C64.1991 63.1612 63.6921 63.3481 63.2117 63.3481Z" fill="#007AFF"/>
</svg>
