<svg width="18" height="18" viewBox="0 0 18 18" fill="none" xmlns="http://www.w3.org/2000/svg">
<path d="M8.8423 8.91C8.4373 8.91 8.02481 8.835 7.7023 8.6925L3.2773 6.7275C2.1523 6.225 1.9873 5.55 1.9873 5.1825C1.9873 4.815 2.1523 4.14 3.2773 3.6375L7.7023 1.6725C8.3548 1.38 9.3373 1.38 9.98981 1.6725L14.4223 3.6375C15.5398 4.1325 15.7123 4.815 15.7123 5.1825C15.7123 5.55 15.5473 6.225 14.4223 6.7275L9.98981 8.6925C9.6598 8.8425 9.2548 8.91 8.8423 8.91ZM8.8423 2.58C8.5873 2.58 8.3398 2.6175 8.1598 2.7L3.7348 4.665C3.2773 4.875 3.1123 5.085 3.1123 5.1825C3.1123 5.28 3.2773 5.4975 3.7273 5.7L8.1523 7.665C8.5123 7.8225 9.1648 7.8225 9.5248 7.665L13.9573 5.7C14.4148 5.4975 14.5798 5.28 14.5798 5.1825C14.5798 5.085 14.4148 4.8675 13.9573 4.665L9.5323 2.7C9.3523 2.625 9.0973 2.58 8.8423 2.58Z" fill="#131313"/>
<path d="M9 12.8175C8.715 12.8175 8.43 12.7575 8.16 12.6375L3.0675 10.3725C2.295 10.035 1.6875 9.0975 1.6875 8.25C1.6875 7.9425 1.9425 7.6875 2.25 7.6875C2.5575 7.6875 2.8125 7.9425 2.8125 8.25C2.8125 8.6625 3.15 9.18 3.525 9.3525L8.6175 11.6175C8.8575 11.7225 9.135 11.7225 9.3825 11.6175L14.475 9.3525C14.85 9.1875 15.1875 8.6625 15.1875 8.25C15.1875 7.9425 15.4425 7.6875 15.75 7.6875C16.0575 7.6875 16.3125 7.9425 16.3125 8.25C16.3125 9.0975 15.705 10.035 14.9325 10.38L9.84 12.645C9.57 12.7575 9.285 12.8175 9 12.8175Z" fill="#131313"/>
<path d="M9 16.5674C8.715 16.5674 8.43 16.5074 8.16 16.3874L3.0675 14.1224C2.2275 13.7474 1.6875 12.9149 1.6875 11.9924C1.6875 11.6849 1.9425 11.4299 2.25 11.4299C2.5575 11.4299 2.8125 11.6924 2.8125 11.9999C2.8125 12.4724 3.09 12.9074 3.525 13.1024L8.6175 15.3674C8.8575 15.4724 9.135 15.4724 9.3825 15.3674L14.475 13.1024C14.91 12.9074 15.1875 12.4799 15.1875 11.9999C15.1875 11.6924 15.4425 11.4374 15.75 11.4374C16.0575 11.4374 16.3125 11.6924 16.3125 11.9999C16.3125 12.9224 15.7725 13.7549 14.9325 14.1299L9.84 16.3949C9.57 16.5074 9.285 16.5674 9 16.5674Z" fill="#131313"/>
</svg>
