<svg width="21" height="22" viewBox="0 0 21 22" fill="none" xmlns="http://www.w3.org/2000/svg">
<path d="M19.6534 10.1293L11.2293 18.5534C10.1972 19.5854 8.79752 20.1652 7.33802 20.1652C5.87852 20.1652 4.47879 19.5854 3.44677 18.5534C2.41475 17.5214 1.83496 16.1217 1.83496 14.6622C1.83496 13.2027 2.41475 11.8029 3.44677 10.7709L11.8709 2.34676C12.559 1.65874 13.4921 1.27222 14.4651 1.27222C15.4381 1.27222 16.3713 1.65874 17.0593 2.34676C17.7473 3.03477 18.1338 3.96792 18.1338 4.94092C18.1338 5.91392 17.7473 6.84707 17.0593 7.53509L8.62594 15.9593C8.28193 16.3033 7.81535 16.4965 7.32885 16.4965C6.84235 16.4965 6.37578 16.3033 6.03177 15.9593C5.68776 15.6152 5.4945 15.1487 5.4945 14.6622C5.4945 14.1757 5.68776 13.7091 6.03177 13.3651L13.8143 5.59176" stroke="#131313" stroke-opacity="0.5" stroke-width="2" stroke-linecap="round" stroke-linejoin="round"/>
</svg>
