<svg width="38" height="38" viewBox="0 0 38 38" fill="none" xmlns="http://www.w3.org/2000/svg">
<path d="M20.5833 31.6666H9.5C9.08007 31.6666 8.67735 31.4998 8.38041 31.2029C8.08348 30.9059 7.91667 30.5032 7.91667 30.0833V7.91663C7.91667 7.4967 8.08348 7.09397 8.38041 6.79704C8.67735 6.50011 9.08007 6.33329 9.5 6.33329H17.4167V11.0833C17.4167 12.3431 17.9171 13.5513 18.8079 14.442C19.6987 15.3328 20.9069 15.8333 22.1667 15.8333H26.9167V19C26.9167 19.4199 27.0835 19.8226 27.3804 20.1195C27.6773 20.4165 28.0801 20.5833 28.5 20.5833C28.9199 20.5833 29.3227 20.4165 29.6196 20.1195C29.9165 19.8226 30.0833 19.4199 30.0833 19V14.25C30.0833 14.25 30.0833 14.25 30.0833 14.155C30.0668 14.0095 30.035 13.8662 29.9883 13.7275V13.585C29.9122 13.4222 29.8107 13.2725 29.6875 13.1416L20.1875 3.64163C20.0566 3.51847 19.907 3.41692 19.7442 3.34079C19.6969 3.33408 19.6489 3.33408 19.6017 3.34079C19.4408 3.24855 19.2632 3.18934 19.0792 3.16663H9.5C8.24022 3.16663 7.03204 3.66707 6.14124 4.55787C5.25045 5.44867 4.75 6.65685 4.75 7.91663V30.0833C4.75 31.3431 5.25045 32.5513 6.14124 33.442C7.03204 34.3328 8.24022 34.8333 9.5 34.8333H20.5833C21.0033 34.8333 21.406 34.6665 21.7029 34.3695C21.9999 34.0726 22.1667 33.6699 22.1667 33.25C22.1667 32.83 21.9999 32.4273 21.7029 32.1304C21.406 31.8334 21.0033 31.6666 20.5833 31.6666ZM20.5833 8.56579L24.6842 12.6666H22.1667C21.7467 12.6666 21.344 12.4998 21.0471 12.2029C20.7501 11.9059 20.5833 11.5032 20.5833 11.0833V8.56579ZM12.6667 12.6666C12.2467 12.6666 11.844 12.8334 11.5471 13.1304C11.2501 13.4273 11.0833 13.83 11.0833 14.25C11.0833 14.6699 11.2501 15.0726 11.5471 15.3695C11.844 15.6665 12.2467 15.8333 12.6667 15.8333H14.25C14.6699 15.8333 15.0727 15.6665 15.3696 15.3695C15.6665 15.0726 15.8333 14.6699 15.8333 14.25C15.8333 13.83 15.6665 13.4273 15.3696 13.1304C15.0727 12.8334 14.6699 12.6666 14.25 12.6666H12.6667ZM22.1667 19H12.6667C12.2467 19 11.844 19.1668 11.5471 19.4637C11.2501 19.7606 11.0833 20.1634 11.0833 20.5833C11.0833 21.0032 11.2501 21.4059 11.5471 21.7029C11.844 21.9998 12.2467 22.1666 12.6667 22.1666H22.1667C22.5866 22.1666 22.9893 21.9998 23.2863 21.7029C23.5832 21.4059 23.75 21.0032 23.75 20.5833C23.75 20.1634 23.5832 19.7606 23.2863 19.4637C22.9893 19.1668 22.5866 19 22.1667 19ZM32.7908 27.3758L29.6242 24.2091C29.4736 24.065 29.296 23.952 29.1017 23.8766C28.7162 23.7183 28.2838 23.7183 27.8983 23.8766C27.704 23.952 27.5264 24.065 27.3758 24.2091L24.2092 27.3758C23.911 27.6739 23.7435 28.0783 23.7435 28.5C23.7435 28.9216 23.911 29.326 24.2092 29.6241C24.5073 29.9223 24.9117 30.0898 25.3333 30.0898C25.755 30.0898 26.1594 29.9223 26.4575 29.6241L26.9167 29.1491V33.25C26.9167 33.6699 27.0835 34.0726 27.3804 34.3695C27.6773 34.6665 28.0801 34.8333 28.5 34.8333C28.9199 34.8333 29.3227 34.6665 29.6196 34.3695C29.9165 34.0726 30.0833 33.6699 30.0833 33.25V29.1491L30.5425 29.6241C30.6897 29.7725 30.8648 29.8903 31.0578 29.9707C31.2507 30.0511 31.4576 30.0925 31.6667 30.0925C31.8757 30.0925 32.0826 30.0511 32.2756 29.9707C32.4685 29.8903 32.6436 29.7725 32.7908 29.6241C32.9392 29.4769 33.057 29.3018 33.1374 29.1089C33.2178 28.9159 33.2592 28.709 33.2592 28.5C33.2592 28.2909 33.2178 28.084 33.1374 27.891C33.057 27.6981 32.9392 27.523 32.7908 27.3758ZM19 28.5C19.4199 28.5 19.8227 28.3331 20.1196 28.0362C20.4165 27.7393 20.5833 27.3366 20.5833 26.9166C20.5833 26.4967 20.4165 26.094 20.1196 25.797C19.8227 25.5001 19.4199 25.3333 19 25.3333H12.6667C12.2467 25.3333 11.844 25.5001 11.5471 25.797C11.2501 26.094 11.0833 26.4967 11.0833 26.9166C11.0833 27.3366 11.2501 27.7393 11.5471 28.0362C11.844 28.3331 12.2467 28.5 12.6667 28.5H19Z" fill="#007AFF"/>
</svg>
